<svg id="a148a9bb-cd0b-4009-bc7f-571c57e19379" data-name="Layer 1" xmlns="http://www.w3.org/2000/svg" viewBox="0 0 241.82 106.03">
  <title>tl_logo_royal_blue</title>
  <polygon points="-0.03 54.59 17.87 54.59 17.87 62.2 13.18 61.98 13.18 78.01 4.66 78.01 4.66 61.98 -0.03 62.2 -0.03 54.59 -0.03 54.59" fill="#055eaa"/>
  <path d="M21.34,54.59H31.62c5.28,0,9.76,2.23,9.76,8.14,0,3.54-1.37,5-4.54,6.09V69a6,6,0,0,1,1.43,1.4L43.36,78H33.55l-3.73-7.52h-.15V78H21.34V54.59ZM29.67,65h.59c1.39,0,2.79-.21,2.79-1.95s-1.27-2-2.73-2h-.65v4Z" fill="#055eaa"/>
  <path d="M53,78H44l8.14-23.42h9.41L69.88,78h-9l-.78-2.92H53.67L53,78Zm5.62-8.48-1-4.13c-.25-1-.41-2-.56-3h-.31l-1.56,7.15Z" fill="#055eaa"/>
  <path d="M72.77,54.59h8.17l7.64,13h.25a35.14,35.14,0,0,1-.71-6v-7h8.13V78H88.12l-7.49-12.3h-.25a27.4,27.4,0,0,1,.53,4.69V78H72.77V54.59Z" fill="#055eaa"/>
  <path d="M102,69.62l.44.34a8.93,8.93,0,0,0,5.31,2.15c.84,0,2.17-.34,2.17-1.4s-1.11-1.15-1.89-1.3l-1.71-.32c-3.32-.59-6.12-2.54-6.12-6.21,0-5.56,5.07-8.67,10.16-8.67a13.9,13.9,0,0,1,7.42,2.06l-2.29,6a8.88,8.88,0,0,0-4.94-1.77c-.75,0-1.84.28-1.84,1.24s1.06,1,1.71,1.15l1.93.44c3.6.8,6.21,2.73,6.21,6.71,0,5.59-5.09,8.35-10.16,8.35a21.19,21.19,0,0,1-9-2.14L102,69.62Z" fill="#055eaa"/>
  <polygon points="157.44 54.59 165.95 54.59 165.95 70.49 173.1 70.49 173.1 78.01 157.44 78.01 157.44 54.59 157.44 54.59" fill="#055eaa"/>
  <polygon points="176.72 54.59 185.24 54.59 185.24 78.01 176.72 78.01 176.72 54.59 176.72 54.59" fill="#055eaa"/>
  <path d="M190.29,54.59h8.17l7.64,13h.25a35.14,35.14,0,0,1-.71-6v-7h8.14V78h-8.14l-7.49-12.3h-.25a27.4,27.4,0,0,1,.53,4.69V78h-8.14V54.59Z" fill="#055eaa"/>
  <path d="M218.18,54.59h8.29l-.18,10.16h.18a9.24,9.24,0,0,1,1.18-2.64l4.1-7.52H241L233.71,66l8.11,12h-9.88l-4-7.08a10.42,10.42,0,0,1-1.43-2.74h-.18l.18,9.82h-8.29V54.59Z" fill="#055eaa"/>
  <path d="M172.78,17.8c.1-1.92-1.91-3-4.6-2.4-16.25,3.78-35.89,20.38-44.42,42.23v3.93c11.78-19.24,24.51-33,42.45-37.87.25,4.66,2.55,6.3,6.22,6.28,6.07,0,13.07-3.83,15.62-4.93a3.18,3.18,0,0,0,4.87-.94c.65-1.15,2.49-3.79-2.61-2.23s-4.86,1.88-10.32,3c-8.13,1.67-7.35-4.2-7.21-7.06Z" fill="#055eaa"/>
  <path d="M110.2,106.14v-6.3c18.71-54.61,62.14-73.5,116.18-65.22V38c-58.54-.77-92.28,14.14-116.18,68.12Z" fill="#055eaa"/>
  <path d="M163.52,12.62c2.76.67,5.68-1.58,6.52-5s-.72-6.8-3.48-7.47-5.68,1.58-6.52,5,.72,6.8,3.48,7.47Z" fill="#055eaa"/>
</svg>
